<svg width="24" height="24" viewBox="0 0 24 24" fill="none" xmlns="http://www.w3.org/2000/svg">
<path d="M9.70757 10.293C9.61532 10.1974 9.50498 10.1213 9.38297 10.0689C9.26097 10.0164 9.12975 9.98886 8.99697 9.98771C8.86419 9.98655 8.73251 10.0119 8.60962 10.0621C8.48672 10.1124 8.37507 10.1867 8.28117 10.2806C8.18728 10.3745 8.11303 10.4861 8.06275 10.609C8.01247 10.7319 7.98717 10.8636 7.98832 10.9964C7.98947 11.1291 8.01706 11.2604 8.06947 11.3824C8.12188 11.5044 8.19806 11.6147 8.29357 11.707L12.0006 15.414L15.7076 11.707C15.8897 11.5184 15.9905 11.2658 15.9882 11.0036C15.986 10.7414 15.8808 10.4905 15.6954 10.3051C15.51 10.1197 15.2592 10.0146 14.997 10.0123C14.7348 10.01 14.4822 10.1108 14.2936 10.293L12.0006 12.586L9.70757 10.293Z" fill="black"/>
</svg>
