<svg width="24" height="24" viewBox="0 0 24 24" fill="none" xmlns="http://www.w3.org/2000/svg">
<path fill-rule="evenodd" clip-rule="evenodd" d="M6.35178 15.5012C6.12654 15.2759 6 14.9704 6 14.6518C6 14.3332 6.12654 14.0276 6.35178 13.8023L12.0073 8.14685L17.6627 13.8023C17.8816 14.0289 18.0027 14.3324 18 14.6475C17.9972 14.9625 17.8709 15.2638 17.6481 15.4866C17.4253 15.7094 17.124 15.8357 16.8089 15.8385C16.4939 15.8412 16.1904 15.7201 15.9638 15.5012L12.0073 11.5447L8.05071 15.5012C7.82539 15.7265 7.51984 15.853 7.20125 15.853C6.88265 15.853 6.5771 15.7265 6.35178 15.5012V15.5012Z" fill="black"/>
</svg>
