<svg width="25" height="24" viewBox="0 0 25 24" fill="none" xmlns="http://www.w3.org/2000/svg">
<path d="M7.5 17H9.5V13H7.5V17ZM5.5 17V12.2C5.5 11.8817 5.62643 11.5765 5.85147 11.3515C6.07652 11.1264 6.38174 11 6.7 11H9.5V8.2C9.5 7.88174 9.62643 7.57652 9.85147 7.35147C10.0765 7.12643 10.3817 7 10.7 7H13.5V4.2C13.5 4.04241 13.531 3.88637 13.5913 3.74078C13.6517 3.59519 13.74 3.4629 13.8515 3.35147C14.0765 3.12643 14.3817 3 14.7 3H18.3C18.4576 3 18.6136 3.03104 18.7592 3.09134C18.9048 3.15165 19.0371 3.24004 19.1485 3.35147C19.26 3.4629 19.3483 3.59519 19.4087 3.74078C19.469 3.88637 19.5 4.04241 19.5 4.2V17H5.5ZM15.5 5V17H17.5V5H15.5ZM11.5 17H13.5V9H11.5V17ZM4.5 19H20.5C20.7652 19 21.0196 19.1054 21.2071 19.2929C21.3946 19.4804 21.5 19.7348 21.5 20C21.5 20.2652 21.3946 20.5196 21.2071 20.7071C21.0196 20.8946 20.7652 21 20.5 21H4.5C4.23478 21 3.98043 20.8946 3.79289 20.7071C3.60536 20.5196 3.5 20.2652 3.5 20C3.5 19.7348 3.60536 19.4804 3.79289 19.2929C3.98043 19.1054 4.23478 19 4.5 19Z" fill="black"/>
</svg>
