<svg width="18" height="18" viewBox="0 0 18 18" fill="none" xmlns="http://www.w3.org/2000/svg">
<path d="M5.25 12.75H6.75V9.75H5.25V12.75ZM3.75 12.75V9.15C3.75 8.9113 3.84482 8.68239 4.0136 8.5136C4.18239 8.34482 4.4113 8.25 4.65 8.25H6.75V6.15C6.75 5.9113 6.84482 5.68239 7.0136 5.5136C7.18239 5.34482 7.4113 5.25 7.65 5.25H9.75V3.15C9.75 3.03181 9.77328 2.91478 9.81851 2.80558C9.86374 2.69639 9.93003 2.59718 10.0136 2.5136C10.1824 2.34482 10.4113 2.25 10.65 2.25H13.35C13.4682 2.25 13.5852 2.27328 13.6944 2.31851C13.8036 2.36374 13.9028 2.43003 13.9864 2.5136C14.07 2.59718 14.1363 2.69639 14.1815 2.80558C14.2267 2.91478 14.25 3.03181 14.25 3.15V12.75H3.75ZM11.25 3.75V12.75H12.75V3.75H11.25ZM8.25 12.75H9.75V6.75H8.25V12.75ZM3 14.25H15C15.1989 14.25 15.3897 14.329 15.5303 14.4697C15.671 14.6103 15.75 14.8011 15.75 15C15.75 15.1989 15.671 15.3897 15.5303 15.5303C15.3897 15.671 15.1989 15.75 15 15.75H3C2.80109 15.75 2.61032 15.671 2.46967 15.5303C2.32902 15.3897 2.25 15.1989 2.25 15C2.25 14.8011 2.32902 14.6103 2.46967 14.4697C2.61032 14.329 2.80109 14.25 3 14.25Z" fill="#4074C1"/>
</svg>
