<svg width="25" height="24" viewBox="0 0 25 24" fill="none" xmlns="http://www.w3.org/2000/svg">
<mask id="mask0_1_5771" style="mask-type:alpha" maskUnits="userSpaceOnUse" x="1" y="2" width="23" height="20">
<path d="M3.58043 4.51603L3.6404 4.45605C4.60899 3.51884 5.90486 2.99367 7.25487 2.99367C8.63342 2.99367 9.95552 3.54128 10.9303 4.51604L10.9305 4.51618L12.1465 5.73118L12.5002 6.08459L12.8536 5.73089L14.0674 4.51603C15.0423 3.54111 16.3646 2.99341 17.7434 2.99341C19.1221 2.99341 20.4444 3.54111 21.4193 4.51603C22.3942 5.49096 22.9419 6.81323 22.9419 8.19198C22.9419 9.57073 22.3942 10.893 21.4193 11.8679L20.2043 13.0829L19.8201 13.4672L19.833 13.4781L12.5282 20.7812L12.5181 20.7701L12.4889 20.7993L5.15516 13.4638L5.16605 13.4539L4.79557 13.0831L3.58057 11.8671L3.58043 11.8669C2.60567 10.8921 2.05806 9.57003 2.05806 8.19148C2.05806 6.81293 2.60567 5.49083 3.58043 4.51603Z" fill="white" stroke="black"/>
</mask>
<g mask="url(#mask0_1_5771)">
<path d="M3.22687 12.2215L1.81287 13.6355L3.22687 12.2215ZM3.22687 4.16254L1.81287 2.74854L3.22687 4.16254ZM4.44187 13.4365L5.85587 14.8505L7.26987 13.4365L5.85587 12.0215L4.44187 13.4365ZM4.43087 13.4465L3.01587 12.0335L1.60187 13.4475L3.01587 14.8615L4.43087 13.4475V13.4465ZM12.4889 21.5065L11.0749 22.9195L12.4889 24.3345L13.9029 22.9205L12.4889 21.5055V21.5065ZM12.5009 21.4945L13.9149 20.0805L12.5009 18.6665L11.0859 20.0805L12.5009 21.4945ZM12.5109 21.5055L11.0979 22.9205L12.5119 24.3345L13.9259 22.9195L12.5119 21.5055H12.5109ZM20.5709 13.4475L21.9839 14.8615L23.3989 13.4475L21.9839 12.0335L20.5699 13.4475H20.5709ZM20.5579 13.4365L19.1439 12.0215L17.7299 13.4365L19.1439 14.8505L20.5579 13.4365ZM21.7729 12.2215L20.3589 10.8065L21.7729 12.2215ZM21.7729 4.16254L23.1869 2.74854L21.7729 4.16254ZM13.7139 4.16254L12.2999 2.74854L13.7149 4.16254H13.7139ZM12.4999 5.37754L11.0849 6.79154L12.4999 8.20554L13.9139 6.79154L12.4999 5.37754ZM11.2839 4.16254L9.87087 5.57654L11.2849 4.16254H11.2839ZM4.64087 10.8065C4.29744 10.4631 4.02502 10.0555 3.83916 9.60678C3.65329 9.15809 3.55763 8.67719 3.55763 8.19154C3.55763 7.70588 3.65329 7.22498 3.83916 6.7763C4.02502 6.32761 4.29744 5.91993 4.64087 5.57654L1.81287 2.74854C1.09799 3.46337 0.530907 4.31201 0.144013 5.24601C-0.242882 6.18001 -0.442015 7.18108 -0.442015 8.19204C-0.442015 9.203 -0.242882 10.2041 0.144013 11.1381C0.530907 12.0721 1.09799 12.9207 1.81287 13.6355L4.64087 10.8065ZM5.85587 12.0215L4.64087 10.8065L1.81287 13.6365L3.02787 14.8515L5.85587 12.0225V12.0215ZM3.02787 12.0215L3.01587 12.0335L5.84487 14.8615L5.85587 14.8505L3.02787 12.0215ZM3.01587 14.8615L11.0749 22.9205L13.9029 20.0915L5.84487 12.0335L3.01587 14.8615ZM13.9029 22.9205L13.9149 22.9085L11.0859 20.0805L11.0749 20.0915L13.9029 22.9205ZM13.9259 20.0915L13.9149 20.0805L11.0859 22.9085L11.0969 22.9205L13.9259 20.0915ZM19.1559 12.0335L11.0979 20.0915L13.9259 22.9205L21.9839 14.8615L19.1559 12.0335ZM19.1449 14.8505L19.1549 14.8615L21.9849 12.0335L21.9729 12.0215L19.1449 14.8505ZM21.9729 14.8505L23.1879 13.6355L20.3599 10.8065L19.1449 12.0215L21.9729 14.8505ZM23.1879 13.6355C23.9028 12.9207 24.4698 12.0721 24.8567 11.1381C25.2436 10.2041 25.4428 9.203 25.4428 8.19204C25.4428 7.18108 25.2436 6.18001 24.8567 5.24601C24.4698 4.31201 23.9028 3.46337 23.1879 2.74854L20.3599 5.57654C20.7033 5.91993 20.9757 6.32761 21.1616 6.7763C21.3474 7.22498 21.4431 7.70588 21.4431 8.19154C21.4431 8.67719 21.3474 9.15809 21.1616 9.60678C20.9757 10.0555 20.7033 10.4631 20.3599 10.8065L23.1879 13.6355ZM23.1879 2.74854C22.473 2.03365 21.6244 1.46657 20.6904 1.07968C19.7564 0.692785 18.7553 0.493652 17.7444 0.493652C16.7334 0.493652 15.7323 0.692785 14.7983 1.07968C13.8643 1.46657 13.0157 2.03365 12.3009 2.74854L15.1299 5.57654C15.4733 5.23311 15.8809 4.96069 16.3296 4.77482C16.7783 4.58896 17.2592 4.4933 17.7449 4.4933C18.2305 4.4933 18.7114 4.58896 19.1601 4.77482C19.6088 4.96069 20.0165 5.23311 20.3599 5.57654L23.1879 2.74854ZM12.3009 2.74854L11.0859 3.96354L13.9149 6.79154L15.1299 5.57654L12.3009 2.74854ZM9.87087 5.57654L11.0859 6.79154L13.9149 3.96354L12.6999 2.74854L9.87087 5.57654ZM4.64087 5.57654C4.98426 5.23311 5.39194 4.96069 5.84063 4.77482C6.28931 4.58896 6.77021 4.4933 7.25587 4.4933C7.74153 4.4933 8.22243 4.58896 8.67111 4.77482C9.11979 4.96069 9.52747 5.23311 9.87087 5.57654L12.6999 2.74854C11.985 2.03365 11.1364 1.46657 10.2024 1.07968C9.26839 0.692785 8.26733 0.493652 7.25637 0.493652C6.24541 0.493652 5.24435 0.692785 4.31035 1.07968C3.37635 1.46657 2.5277 2.03365 1.81287 2.74854L4.64087 5.57654Z" fill="black"/>
</g>
</svg>
