<svg width="201" height="48" viewBox="0 0 201 48" fill="none" xmlns="http://www.w3.org/2000/svg">
<path d="M56 32.4H61.6V20.9L67.1 32.4H71.1L76.6 20.9V32.4H82.3V14.4H74.8L69.3 25.6L63.9 14.4H56V32.4Z" fill="black"/>
<path d="M100.5 14.4H92.8L84.5 32.4H90.3L91.7 29.3H101.3L102.7 32.4H108.9L100.5 14.4ZM93.6 25.3L96.6 18.6L99.7 25.3H93.6Z" fill="black"/>
<path d="M132.6 30.6V28.3C132.6 25.6 130.9 24.3 128.5 23.8C130.7 23.3 132.5 21.9 132.5 19.5V19.3C132.5 17.1 131.6 14.4 124.8 14.4H111.3V32.4H117.1V26.5H123.2C125.8 26.5 126.6 27.3 126.6 29.7V31.2C126.6 32 126.7 32.3 126.7 32.4H132.7V32.3C132.7 32.1 132.6 31.7 132.6 30.6ZM126.4 20.4C126.4 21.3 125.9 22.1 124 22.1H117.1V18.7H124C125.9 18.7 126.4 19.5 126.4 20.4Z" fill="black"/>
<path d="M150.7 32.4H158.2L148.4 22.6L157.7 14.4H150.6L142.6 21.6V14.4H136.7V32.4H142.6V24.2L150.7 32.4Z" fill="black"/>
<path d="M160.5 14.4V32.4H178.1V28.3H166.3V25.5H177.6V21.2H166.3V18.6H178V14.4H160.5Z" fill="black"/>
<path d="M180.8 19H188V32.4H193.8V19H201V14.4H180.8V19Z" fill="black"/>
<path d="M24 48C37.2548 48 48 37.2548 48 24C48 10.7452 37.2548 0 24 0C10.7452 0 0 10.7452 0 24C0 37.2548 10.7452 48 24 48Z" fill="#FFC907"/>
<path d="M14.2 14.4H28.5C33.7 14.4 35.2 16.5 35.2 18.7V19C35.2 21.4 33.1 22.5 31.7 22.7C33.7 23 36.1 24.1 36.1 27.2V27.4C36.1 30.2 34.4 32.7 28.5 32.7H14.2V14.4ZM20 18.5V21.4H27.1C28.6 21.4 29 20.8 29 20C29 19.1 28.6 18.6 27.1 18.6H20V18.5ZM20 25.2V28.4H27.6C29.4 28.4 29.8 27.5 29.8 26.8V26.7C29.8 25.9 29.4 25.2 27.6 25.2H20Z" fill="black"/>
</svg>
