<svg width="16" height="16" viewBox="0 0 16 16" fill="none" xmlns="http://www.w3.org/2000/svg">
<path d="M12 8.66671H8.66667V12C8.66667 12.1769 8.59643 12.3464 8.47141 12.4714C8.34638 12.5965 8.17681 12.6667 8 12.6667C7.82319 12.6667 7.65362 12.5965 7.5286 12.4714C7.40357 12.3464 7.33334 12.1769 7.33334 12V8.66671H4C3.82319 8.66671 3.65362 8.59647 3.5286 8.47145C3.40357 8.34642 3.33334 8.17685 3.33334 8.00004C3.33334 7.82323 3.40357 7.65366 3.5286 7.52864C3.65362 7.40361 3.82319 7.33337 4 7.33337H7.33334V4.00004C7.33334 3.82323 7.40357 3.65366 7.5286 3.52864C7.65362 3.40361 7.82319 3.33337 8 3.33337C8.17681 3.33337 8.34638 3.40361 8.47141 3.52864C8.59643 3.65366 8.66667 3.82323 8.66667 4.00004V7.33337H12C12.1768 7.33337 12.3464 7.40361 12.4714 7.52864C12.5964 7.65366 12.6667 7.82323 12.6667 8.00004C12.6667 8.17685 12.5964 8.34642 12.4714 8.47145C12.3464 8.59647 12.1768 8.66671 12 8.66671Z" fill="#4074C1"/>
</svg>
