<svg width="24" height="24" viewBox="0 0 24 24" fill="none" xmlns="http://www.w3.org/2000/svg">
<path d="M18.8977 17.4835C18.5072 17.093 17.874 17.093 17.4835 17.4835C17.0929 17.874 17.0929 18.5072 17.4835 18.8977L18.8977 17.4835ZM21.2929 22.7072C21.6834 23.0977 22.3166 23.0977 22.7071 22.7072C23.0976 22.3167 23.0976 21.6835 22.7071 21.293L21.2929 22.7072ZM17.4835 18.8977L21.2929 22.7072L22.7071 21.293L18.8977 17.4835L17.4835 18.8977ZM10.5714 18.1429C6.38985 18.1429 3 14.753 3 10.5714H1C1 15.8576 5.28528 20.1429 10.5714 20.1429V18.1429ZM18.1429 10.5714C18.1429 14.753 14.753 18.1429 10.5714 18.1429V20.1429C15.8576 20.1429 20.1429 15.8576 20.1429 10.5714H18.1429ZM10.5714 3C14.753 3 18.1429 6.38985 18.1429 10.5714H20.1429C20.1429 5.28528 15.8576 1 10.5714 1V3ZM10.5714 1C5.28528 1 1 5.28528 1 10.5714H3C3 6.38985 6.38985 3 10.5714 3V1Z" fill="black"/>
</svg>
