<svg width="16" height="17" viewBox="0 0 16 17" fill="none" xmlns="http://www.w3.org/2000/svg">
<path fill-rule="evenodd" clip-rule="evenodd" d="M8.00001 2.5C8.22418 2.5 8.4284 2.62137 8.52495 2.81198L10.2317 6.18173L14.161 6.66969C14.3833 6.69729 14.5689 6.84276 14.6382 7.04363C14.7075 7.24448 14.648 7.46496 14.4855 7.61039L11.6111 10.181L12.3327 13.8523C12.3735 14.0599 12.284 14.2712 12.1026 14.3954C11.9213 14.5195 11.6803 14.5344 11.4833 14.4337L8.00001 12.6526L4.51673 14.4337C4.3197 14.5344 4.07875 14.5195 3.89739 14.3954C3.71602 14.2712 3.62653 14.0599 3.66734 13.8523L4.38895 10.181L1.51456 7.61039C1.35197 7.46496 1.29256 7.24448 1.36183 7.04363C1.4311 6.84276 1.61674 6.69729 1.83899 6.66969L5.76825 6.18173L7.47507 2.81198C7.57163 2.62137 7.77584 2.5 8.00001 2.5Z" fill="#FFC800"/>
</svg>
