<svg width="24" height="24" viewBox="0 0 24 24" fill="none" xmlns="http://www.w3.org/2000/svg">
<path d="M20.4932 20.4177L20.9864 20.3355L20.4932 20.4177C20.5386 20.6901 20.3545 20.9477 20.0822 20.9931C19.8098 21.0385 19.5523 20.8545 19.5069 20.5821L19.0639 17.9245C18.7826 16.2368 17.3225 14.9999 15.6115 14.9999H8.38852C6.6776 14.9999 5.21743 16.2368 4.93615 17.9245L4.49322 20.5821C4.44781 20.8545 4.19021 21.0385 3.91783 20.9931C3.64543 20.9477 3.46142 20.6901 3.50682 20.4177L3.94975 17.7601C4.3114 15.5903 6.18876 13.9999 8.38852 13.9999H15.6115C17.8112 13.9999 19.6886 15.5903 20.0503 17.7601L20.4932 20.4177ZM11.9999 11.9999C9.51459 11.9999 7.49986 9.98514 7.49986 7.49988C7.49986 5.0146 9.51459 2.99988 11.9999 2.99988C14.4851 2.99988 16.4999 5.0146 16.4999 7.49988C16.4999 9.98514 14.4851 11.9999 11.9999 11.9999ZM11.9999 10.9999C13.9329 10.9999 15.4999 9.43286 15.4999 7.49988C15.4999 5.56689 13.9329 3.99988 11.9999 3.99988C10.0668 3.99988 8.49986 5.56689 8.49986 7.49988C8.49986 9.43286 10.0668 10.9999 11.9999 10.9999Z" fill="black" stroke="black"/>
</svg>
